<svg version="1.1" xmlns="http://www.w3.org/2000/svg" viewBox="0 0 317.4567659353994 180.5836817019549" width="952.3702978061982" height="541.7510451058647">
  <!-- svg-source:excalidraw -->
  
  <defs>
    <style>
      @font-face {
        font-family: "Virgil";
        src: url("https://excalidraw.com/Virgil.woff2");
      }
      @font-face {
        font-family: "Cascadia";
        src: url("https://excalidraw.com/Cascadia.woff2");
      }
    </style>
  </defs>
  <g stroke-linecap="round" transform="translate(184.10598405352164 62.2188480687239) rotate(0 27.150252135011783 26.402902662797885)"><path d="M15.2 3.13 C19.93 0.31, 27.98 -1.23, 33.55 0.14 C39.12 1.5, 45.07 6.59, 48.62 11.33 C52.17 16.07, 55.4 22.76, 54.84 28.59 C54.28 34.42, 49.51 42.24, 45.27 46.29 C41.03 50.34, 35.09 52.75, 29.4 52.88 C23.71 53.02, 16.05 50.36, 11.15 47.13 C6.24 43.89, 1.37 38.71, -0.05 33.48 C-1.47 28.24, -0.18 21.12, 2.63 15.71 C5.44 10.29, 14.27 3.31, 16.83 0.97 C19.4 -1.36, 17.97 1.2, 18.04 1.69 M40.33 2.4 C45.36 4.53, 48.58 12.29, 50.76 17.43 C52.93 22.57, 54.95 28.06, 53.4 33.23 C51.85 38.4, 46.53 45, 41.45 48.46 C36.38 51.92, 28.63 54.86, 22.95 53.99 C17.27 53.12, 10.98 47.61, 7.35 43.22 C3.73 38.82, 1.5 33.31, 1.2 27.62 C0.9 21.93, 2.42 13.7, 5.55 9.1 C8.68 4.5, 14.43 1.11, 19.98 0.03 C25.54 -1.05, 35.78 2.17, 38.89 2.62 C42 3.06, 38.75 2.06, 38.63 2.68" stroke="#000000" stroke-width="4" fill="none"></path></g><g stroke-linecap="round" transform="translate(131.9222848744456 22.863351165918857) rotate(0 27.150252135011783 26.402902662797885)"><path d="M28.02 -0.95 C33.25 -1.3, 39.54 1.35, 43.82 5.27 C48.1 9.19, 52.65 16.98, 53.71 22.58 C54.77 28.17, 52.91 34.03, 50.18 38.84 C47.45 43.65, 42.72 49.43, 37.35 51.46 C31.98 53.49, 23.68 53.16, 17.94 51.03 C12.19 48.89, 5.71 43.53, 2.88 38.64 C0.06 33.75, -0.29 27.12, 0.98 21.68 C2.25 16.24, 6.11 9.64, 10.52 6.03 C14.93 2.41, 24.34 1, 27.44 -0.02 C30.54 -1.04, 29.08 -0.72, 29.14 -0.11 M16.16 0.6 C21.1 -1.85, 31.01 -0.34, 36.48 1.52 C41.96 3.39, 46.1 7.2, 49.01 11.78 C51.91 16.37, 54.27 23.32, 53.93 29.02 C53.58 34.71, 51.38 41.81, 46.94 45.97 C42.5 50.13, 33.35 53.71, 27.3 53.95 C21.25 54.19, 15.29 51.22, 10.63 47.4 C5.97 43.57, 0.71 36.64, -0.66 31 C-2.03 25.36, -0.43 18.52, 2.41 13.57 C5.25 8.62, 14.09 3.2, 16.38 1.32 C18.68 -0.55, 15.79 2.03, 16.18 2.34" stroke="#000000" stroke-width="4" fill="none"></path></g><g stroke-linecap="round" transform="translate(137.90033571044376 106.0572711821203) rotate(0 27.150252135011783 26.402902662797885)"><path d="M38.48 2.01 C43.54 3.97, 48.61 10.57, 51.16 15.84 C53.72 21.11, 55.48 28.02, 53.81 33.63 C52.14 39.24, 46.09 46.32, 41.15 49.51 C36.2 52.7, 29.77 53.73, 24.11 52.77 C18.45 51.81, 11.33 47.8, 7.17 43.73 C3.01 39.67, -0.55 33.8, -0.85 28.39 C-1.15 22.99, 1.75 16.09, 5.38 11.31 C9 6.53, 14.85 0.99, 20.89 -0.28 C26.93 -1.54, 38 2.76, 41.63 3.71 C45.27 4.67, 42.8 5.16, 42.73 5.47 M37.97 4.07 C42.98 6.12, 49.96 10.03, 52.43 15 C54.9 19.97, 54.63 28.08, 52.76 33.89 C50.9 39.71, 46.02 46.96, 41.24 49.9 C36.46 52.83, 29.52 52.43, 24.07 51.52 C18.62 50.6, 12.53 48.59, 8.53 44.43 C4.52 40.27, 0.77 32.3, 0.05 26.55 C-0.66 20.81, 0.87 14.32, 4.23 9.96 C7.6 5.59, 14.52 1.69, 20.26 0.38 C26 -0.93, 35.57 1.46, 38.69 2.12 C41.81 2.78, 39.27 4.05, 38.97 4.34" stroke="#000000" stroke-width="4" fill="none"></path></g><g stroke-linecap="round" transform="translate(87.58495035051226 66.20411330665434) rotate(0 27.150252135011783 26.402902662797885)"><path d="M15.95 1.04 C20.77 -1.05, 29.55 0.18, 35.16 1.91 C40.78 3.64, 46.32 6.72, 49.63 11.42 C52.95 16.12, 55.73 24.39, 55.06 30.11 C54.38 35.83, 50.19 42.11, 45.61 45.74 C41.03 49.37, 33.32 51.64, 27.57 51.89 C21.83 52.15, 15.5 50.59, 11.14 47.27 C6.78 43.95, 2.89 37.5, 1.39 31.98 C-0.11 26.45, -1.42 19.53, 2.12 14.12 C5.66 8.72, 18.17 1.65, 22.64 -0.44 C27.11 -2.53, 28.93 0.86, 28.94 1.58 M35.03 1.12 C40.39 2.29, 44.98 6.16, 48.16 10.57 C51.33 14.97, 54.1 21.82, 54.08 27.55 C54.06 33.28, 52.23 40.56, 48.02 44.94 C43.81 49.33, 34.83 53.29, 28.81 53.84 C22.78 54.39, 16.71 51.83, 11.86 48.26 C7.01 44.69, 1.4 37.99, -0.29 32.42 C-1.97 26.86, -0.79 19.98, 1.76 14.9 C4.3 9.81, 9.78 4.31, 15 1.93 C20.22 -0.45, 29.79 0.94, 33.07 0.62 C36.35 0.29, 34.9 -0.55, 34.69 0" stroke="#000000" stroke-width="4" fill="none"></path></g><g stroke-linecap="round" transform="translate(78.72838296769976 -58.279600799413174) rotate(270.11260651509315 80 148.57144165039062)"><path d="M40 0 M40 0 C55.65 0.82, 72.53 -2.45, 120 0 M40 0 C55.9 -1.38, 73.67 -0.33, 120 0 M120 0 C146.97 -0.32, 158.57 11.55, 160 40 M120 0 C147.94 -0.13, 161.74 13.11, 160 40 M160 40 C158.61 83.28, 161.57 126.94, 160 257.14 M160 40 C160.1 126.19, 161.12 210.36, 160 257.14 M160 257.14 C159.5 283.61, 145.64 299, 120 297.14 M160 257.14 C160.22 282.12, 148.47 297.08, 120 297.14 M120 297.14 C95.11 295.58, 71.47 295.57, 40 297.14 M120 297.14 C98.98 296.81, 80.09 297.04, 40 297.14 M40 297.14 C11.38 297.87, -1.01 284.65, 0 257.14 M40 297.14 C15.44 299, -0.31 285.3, 0 257.14 M0 257.14 C-1.4 190.74, -1.81 121.63, 0 40 M0 257.14 C0.12 189.28, 0.5 121.01, 0 40 M0 40 C-1.7 13.41, 12.43 1.72, 40 0 M0 40 C-0.05 11.45, 14.17 -0.69, 40 0" stroke="#000000" stroke-width="4" fill="none"></path></g><g stroke-linecap="round"><g transform="translate(-6.29762855313686 90.32457413300631) rotate(270.11260651509315 37.44655336649157 -0.6083915311843384)"><path d="M-0.94 0.94 C11.35 0.4, 61.28 -1.77, 73.72 -2.16 M0.77 0.4 C13.41 0.47, 63.29 -1.06, 75.83 -1.16" stroke="#000000" stroke-width="4" fill="none"></path></g></g><g stroke-linecap="round"><g transform="translate(33.708131285868035 146.9707126844885) rotate(270.11260651509315 -9.671286511234882 -9.299329457245733)"><path d="M0.94 -1.14 C-2.62 -4.23, -16.88 -16.75, -20.29 -19.48 M-0.02 0.88 C-3.32 -2.03, -14.71 -15.16, -18.11 -18.54" stroke="#000000" stroke-width="4" fill="none"></path></g></g><g stroke-linecap="round"><g transform="translate(14.846363161803197 54.56762417008599) rotate(270.11260651509315 8.481505395332363 -9.587067885706176)"><path d="M-1.14 -1.02 C1.68 -4.55, 12.81 -16.98, 15.99 -20.24 M0.46 1.06 C3.72 -2.37, 15.24 -15.4, 18.1 -18.82" stroke="#000000" stroke-width="4" fill="none"></path></g></g><g stroke-linecap="round" transform="translate(267.8755057134157 75.67629309269273) rotate(270.11260651509315 13.71429443359375 12.571426391601562)"><path d="M11.54 1.05 C14.22 0.74, 19.14 1.11, 21.68 2.35 C24.21 3.59, 26.16 5.81, 26.76 8.47 C27.37 11.14, 26.51 15.62, 25.31 18.32 C24.12 21.02, 22.1 23.75, 19.59 24.66 C17.07 25.57, 13.05 24.64, 10.21 23.78 C7.36 22.92, 4.33 21.62, 2.52 19.5 C0.7 17.39, -1.1 13.86, -0.7 11.11 C-0.31 8.35, 2.44 4.75, 4.87 2.99 C7.29 1.22, 12.46 1.13, 13.82 0.52 C15.19 -0.1, 13.05 -0.86, 13.05 -0.7 M8.43 2.1 C11.1 0.94, 15.66 -1, 18.73 -0.28 C21.8 0.43, 25.45 4.08, 26.86 6.39 C28.27 8.71, 28.14 11.06, 27.2 13.61 C26.25 16.16, 23.59 19.82, 21.2 21.69 C18.8 23.56, 15.68 24.88, 12.82 24.82 C9.96 24.77, 6.18 22.9, 4.04 21.36 C1.9 19.83, 0.56 18.37, -0.01 15.61 C-0.58 12.85, -1.01 7.46, 0.61 4.82 C2.24 2.17, 8.56 0.28, 9.76 -0.28 C10.96 -0.84, 7.98 1.01, 7.83 1.48" stroke="#000000" stroke-width="4" fill="none"></path></g><g stroke-linecap="round"><g transform="translate(161.1047173827027 63.816439433438745) rotate(0 -0.34834293565893404 -14.85777642708274)"><path d="M-1.15 -0.24 C-1.01 -4.98, -0.12 -24.89, -0.28 -29.48 M0.45 -1.4 C0.6 -5.9, -0.77 -23.54, -0.8 -28.22" stroke="#000000" stroke-width="4" fill="none"></path></g><g transform="translate(161.1047173827027 63.816439433438745) rotate(0 -0.34834293565893404 -14.85777642708274)"><path d="M4.47 -13.86 C3.09 -18.85, 4.03 -20.07, -0.58 -28.45 M4.72 -14.29 C3.53 -18.57, 2.3 -21.21, -1.34 -28.58" stroke="#000000" stroke-width="4" fill="none"></path></g><g transform="translate(161.1047173827027 63.816439433438745) rotate(0 -0.34834293565893404 -14.85777642708274)"><path d="M-5.43 -13.42 C-4.77 -18.4, -1.81 -19.71, -0.58 -28.45 M-5.18 -13.85 C-4.1 -18.28, -3.07 -21.02, -1.34 -28.58" stroke="#000000" stroke-width="4" fill="none"></path></g></g><g stroke-linecap="round"><g transform="translate(213.84501697207622 106.19688229919052) rotate(91.67225394066928 -1.563485865040775 -14.572304238937818)"><path d="M-0.24 0.81 C-0.33 -3.99, -1.67 -25.04, -1.62 -29.96 M-1.82 0.19 C-2.03 -4.39, -3.14 -24.37, -2.84 -28.95" stroke="#000000" stroke-width="4" fill="none"></path></g><g transform="translate(213.84501697207622 106.19688229919052) rotate(91.67225394066928 -1.563485865040775 -14.572304238937818)"><path d="M3.18 -16 C0.04 -16.86, 0.48 -21, -3.07 -29.98 M2.75 -15.44 C0.36 -18.27, -0.28 -21.64, -3.21 -28.26" stroke="#000000" stroke-width="4" fill="none"></path></g><g transform="translate(213.84501697207622 106.19688229919052) rotate(91.67225394066928 -1.563485865040775 -14.572304238937818)"><path d="M-6.72 -15.94 C-7.74 -16.79, -5.17 -20.94, -3.07 -29.98 M-7.16 -15.37 C-7.46 -18.21, -6.01 -21.59, -3.21 -28.26" stroke="#000000" stroke-width="4" fill="none"></path></g></g><g stroke-linecap="round"><g transform="translate(165.70219470645122 147.91126828551864) rotate(180.67357107062682 -0.6409753473476485 -13.723972871881017)"><path d="M0.81 -0.53 C0.65 -5.12, -1.82 -23.05, -2.09 -27.76 M-0.22 1.81 C0.09 -3.06, 0.3 -24.4, 0.09 -29.26" stroke="#000000" stroke-width="4" fill="none"></path></g><g transform="translate(165.70219470645122 147.91126828551864) rotate(180.67357107062682 -0.6409753473476485 -13.723972871881017)"><path d="M4.55 -16.91 C5.61 -18.12, 3.35 -21.43, -0.94 -30.55 M5.11 -16.4 C3.35 -20.76, 1.03 -25.66, 0.78 -29.83" stroke="#000000" stroke-width="4" fill="none"></path></g><g transform="translate(165.70219470645122 147.91126828551864) rotate(180.67357107062682 -0.6409753473476485 -13.723972871881017)"><path d="M-5.36 -16.81 C-2.27 -18.1, -2.51 -21.44, -0.94 -30.55 M-4.79 -16.29 C-3.04 -20.77, -1.83 -25.71, 0.78 -29.83" stroke="#000000" stroke-width="4" fill="none"></path></g></g><g stroke-linecap="round"><g transform="translate(113.70195056582622 110.05412106872177) rotate(270.9839795589484 0.4345965398847511 -14.798108562342861)"><path d="M-0.53 -1 C-0.47 -5.92, 0.16 -24, 0.1 -28.69 M1.4 1.08 C1.42 -4.29, 0.27 -25.84, -0.22 -30.68" stroke="#000000" stroke-width="4" fill="none"></path></g><g transform="translate(113.70195056582622 110.05412106872177) rotate(270.9839795589484 0.4345965398847511 -14.798108562342861)"><path d="M4.48 -16.02 C4.26 -20.97, 2.06 -25.93, -1.51 -29.88 M5 -17.49 C3.57 -21.89, 1.75 -24.56, -0.79 -30" stroke="#000000" stroke-width="4" fill="none"></path></g><g transform="translate(113.70195056582622 110.05412106872177) rotate(270.9839795589484 0.4345965398847511 -14.798108562342861)"><path d="M-5.4 -15.31 C-2.86 -20.41, -2.29 -25.58, -1.51 -29.88 M-4.89 -16.78 C-3.41 -21.38, -2.32 -24.26, -0.79 -30" stroke="#000000" stroke-width="4" fill="none"></path></g></g></svg>