<svg version="1.1" xmlns="http://www.w3.org/2000/svg" viewBox="0 0 330.2855224609375 300.40817042759477" width="990.8565673828125" height="901.2245112827843">
  <!-- svg-source:excalidraw -->
  
  <defs>
    <style>
      @font-face {
        font-family: "Virgil";
        src: url("https://excalidraw.com/Virgil.woff2");
      }
      @font-face {
        font-family: "Cascadia";
        src: url("https://excalidraw.com/Cascadia.woff2");
      }
    </style>
  </defs>
  <g stroke-linecap="round" transform="translate(10 10) rotate(0 155.14276123046875 95.71421813964844)"><path d="M47.86 0 M47.86 0 C120.66 1.27, 196.07 -0.64, 262.43 0 M47.86 0 C93.75 -1.34, 139.6 -0.28, 262.43 0 M262.43 0 C294.13 -1.06, 311.72 16.47, 310.29 47.86 M262.43 0 C295.54 0.29, 309.34 14.39, 310.29 47.86 M310.29 47.86 C311.93 86.55, 310.46 124.75, 310.29 143.57 M310.29 47.86 C310.81 86.5, 310.63 122.88, 310.29 143.57 M310.29 143.57 C309.69 173.55, 293.74 192.81, 262.43 191.43 M310.29 143.57 C309.9 173.41, 296.6 193.06, 262.43 191.43 M262.43 191.43 C188.35 189.16, 115.07 190.27, 47.86 191.43 M262.43 191.43 C194 193.59, 125.19 193.25, 47.86 191.43 M47.86 191.43 C16.46 193.36, -0.01 177.41, 0 143.57 M47.86 191.43 C17.51 189.9, 0.84 177.05, 0 143.57 M0 143.57 C1.86 114.82, -0.98 84.38, 0 47.86 M0 143.57 C0.52 106.79, -0.42 70.65, 0 47.86 M0 47.86 C-1.4 13.96, 15.85 -1.14, 47.86 0 M0 47.86 C1.97 16.97, 17.78 -0.52, 47.86 0" stroke="#000000" stroke-width="4" fill="none"></path></g><g stroke-linecap="round" transform="translate(125.18327985491078 62.97976466587602) rotate(0 44.85699462890625 42.28569030761719)"><path d="M65.86 5.21 C73.18 8.07, 80.19 14.03, 84.29 20.67 C88.39 27.32, 90.99 37.43, 90.46 45.07 C89.93 52.71, 85.86 60.38, 81.11 66.52 C76.36 72.66, 69.37 79.02, 61.95 81.91 C54.53 84.8, 44.7 85.53, 36.59 83.88 C28.47 82.23, 19 77.36, 13.26 72.01 C7.52 66.66, 4.05 58.92, 2.15 51.77 C0.24 44.62, -0.8 36.22, 1.81 29.1 C4.42 21.98, 11.18 13.71, 17.8 9.05 C24.42 4.38, 32.81 1.53, 41.51 1.11 C50.21 0.69, 64.52 4.71, 70.02 6.53 C75.53 8.35, 74.83 11.37, 74.53 12.03 M39.27 0.21 C46.78 -1.13, 54.54 1.92, 61.92 5.21 C69.29 8.49, 79 13.85, 83.52 19.91 C88.05 25.97, 89.19 34.3, 89.06 41.57 C88.94 48.84, 86.87 57.09, 82.78 63.52 C78.69 69.96, 71.8 76.68, 64.51 80.17 C57.22 83.66, 46.99 85.3, 39.03 84.46 C31.07 83.63, 22.72 80.01, 16.76 75.14 C10.79 70.28, 5.63 62.65, 3.26 55.29 C0.89 47.93, 0.3 38.45, 2.54 30.98 C4.79 23.51, 10.56 15.39, 16.75 10.48 C22.93 5.56, 36.24 2.92, 39.68 1.48 C43.11 0.04, 37.32 1.29, 37.36 1.85" stroke="#000000" stroke-width="4" fill="none"></path></g><g stroke-linecap="round" transform="translate(102.89775739397328 148.12252589634477) rotate(0 66.57135009765625 71.142822265625)"><path d="M83.54 18 M83.54 18 C93.68 25.19, 98.29 36.36, 116.61 54 M83.54 18 C95.66 30.86, 105.9 42, 116.61 54 M116.61 54 C134.57 72.52, 134.19 72.25, 116.61 89.57 M116.61 54 C132.19 70.44, 135.33 71.54, 116.61 89.57 M116.61 89.57 C109.88 98.81, 103.98 105.08, 83.54 124.71 M116.61 89.57 C110.39 96.9, 102.56 103.8, 83.54 124.71 M83.54 124.71 C66.4 143.67, 66.66 140.49, 50.25 124.71 M83.54 124.71 C69.27 143.92, 68.05 141.29, 50.25 124.71 M50.25 124.71 C42.32 114.34, 32.7 105.95, 16.75 89.57 M50.25 124.71 C38.17 112.46, 25.38 99.81, 16.75 89.57 M16.75 89.57 C-0.01 73.93, 1.36 70.67, 16.75 54 M16.75 89.57 C0.84 73.57, 0.24 72.28, 16.75 54 M16.75 54 C27.92 40.77, 42.8 27.96, 50.25 18 M16.75 54 C23.28 46.79, 29.56 38.23, 50.25 18 M50.25 18 C66.89 -1.14, 68.71 0.88, 83.54 18 M50.25 18 C68.83 -0.52, 64.94 -1, 83.54 18" stroke="#000000" stroke-width="4" fill="none"></path></g><g stroke-linecap="round" transform="translate(46.88019941161156 92.2652566092354) rotate(0 35.61509969030726 33.57356167612619)"><path d="M20.9 2.46 C26.8 -0.59, 36.35 -0.19, 43.12 1.08 C49.88 2.35, 56.73 5.31, 61.49 10.07 C66.24 14.83, 70.69 23.01, 71.67 29.64 C72.64 36.28, 70.89 44.28, 67.34 49.89 C63.79 55.5, 56.59 60.54, 50.35 63.28 C44.11 66.02, 36.79 67.32, 29.88 66.35 C22.97 65.38, 13.75 62.2, 8.88 57.46 C4.02 52.73, 1.35 44.47, 0.71 37.95 C0.06 31.42, 1.51 24.37, 5.02 18.33 C8.54 12.28, 18.55 4.13, 21.79 1.67 C25.04 -0.79, 24.16 2.95, 24.5 3.54 M31.39 0.11 C37.89 -0.94, 44.52 2.08, 50.71 5.27 C56.91 8.47, 65.32 13.72, 68.55 19.28 C71.78 24.84, 71.41 32.5, 70.09 38.64 C68.77 44.77, 65.37 51.48, 60.63 56.1 C55.89 60.71, 48.53 65.04, 41.67 66.3 C34.81 67.56, 25.62 66.48, 19.48 63.64 C13.34 60.81, 7.77 55.09, 4.83 49.3 C1.89 43.51, 0.75 35.44, 1.86 28.9 C2.96 22.35, 6.46 14.76, 11.45 10.01 C16.44 5.25, 28.39 1.69, 31.8 0.36 C35.21 -0.96, 32.22 1.4, 31.9 2.05" stroke="#000000" stroke-width="4" fill="none"></path></g><g stroke-linecap="round" transform="translate(29.186167284336534 159.8660389223926) rotate(0 52.85564246692786 56.4852533746714)"><path d="M66.18 14.25 M66.18 14.25 C73.14 23.96, 84.08 33.61, 92.53 42.75 M66.18 14.25 C72.3 20.08, 79.11 27.35, 92.53 42.75 M92.53 42.75 C106.76 57.25, 104.89 55.64, 92.53 70.99 M92.53 42.75 C107.9 56.54, 103.97 59.11, 92.53 70.99 M92.53 70.99 C85.44 80.34, 72.76 91.76, 66.18 98.98 M92.53 70.99 C82.05 80.9, 71.7 93.53, 66.18 98.98 M66.18 98.98 C52.66 111.17, 54.97 114.39, 39.75 98.98 M66.18 98.98 C54.05 111.97, 52.26 113.05, 39.75 98.98 M39.75 98.98 C34.59 93.54, 30.19 88.42, 13.25 70.99 M39.75 98.98 C29.48 89.14, 18.85 78.18, 13.25 70.99 M13.25 70.99 C1.36 55.67, 0.73 58.37, 13.25 42.75 M13.25 70.99 C0.24 57.28, 1.6 59.27, 13.25 42.75 M13.25 42.75 C24.24 33.53, 29.96 24.61, 39.75 14.25 M13.25 42.75 C19.85 33.89, 27.77 26.49, 39.75 14.25 M39.75 14.25 C54.71 0.88, 54.59 -0.46, 66.18 14.25 M39.75 14.25 C50.94 -1, 51.79 -2.06, 66.18 14.25" stroke="#000000" stroke-width="4" fill="none"></path></g><g stroke-linecap="round" transform="translate(223.87896931994646 91.69393702915727) rotate(0 35.61509969030726 33.57356167612619)"><path d="M43.03 1.06 C49.54 1.81, 56.65 5.26, 61.42 10.01 C66.19 14.76, 70.66 22.92, 71.66 29.56 C72.65 36.19, 70.92 44.2, 67.38 49.81 C63.85 55.43, 56.67 60.49, 50.43 63.25 C44.19 66, 36.88 67.32, 29.97 66.36 C23.05 65.41, 13.82 62.25, 8.95 57.52 C4.07 52.8, 1.38 44.55, 0.72 38.03 C0.06 31.51, 1.73 24.35, 4.98 18.4 C8.22 12.45, 13.32 5.04, 20.19 2.34 C27.05 -0.35, 41.39 2.2, 46.17 2.23 C50.95 2.26, 49.21 2.3, 48.88 2.52 M28.99 1.85 C35.48 0.63, 46.8 1.76, 53.11 4.47 C59.42 7.18, 63.88 12.56, 66.83 18.1 C69.78 23.63, 71.71 31.19, 70.8 37.67 C69.89 44.16, 66.31 52.13, 61.38 57.03 C56.45 61.93, 48.06 65.89, 41.21 67.07 C34.36 68.25, 26.29 67.05, 20.27 64.11 C14.26 61.17, 8.28 55.38, 5.12 49.43 C1.95 43.49, 0.12 35.06, 1.28 28.43 C2.44 21.8, 7.01 14.14, 12.09 9.63 C17.17 5.13, 28.89 2.73, 31.78 1.39 C34.67 0.05, 29.43 1.17, 29.44 1.58" stroke="#000000" stroke-width="4" fill="none"></path></g><g stroke-linecap="round" transform="translate(206.18493719267053 159.29471934231447) rotate(0 52.85564246692786 56.4852533746714)"><path d="M66.18 14.25 M66.18 14.25 C72.24 21.09, 75.6 27.86, 92.53 42.75 M66.18 14.25 C76.04 24.57, 85.02 34.36, 92.53 42.75 M92.53 42.75 C104.89 55.64, 107.62 56.6, 92.53 70.99 M92.53 42.75 C103.97 59.11, 106.69 57.42, 92.53 70.99 M92.53 70.99 C81.52 82.46, 75.63 92.2, 66.18 98.98 M92.53 70.99 C85.35 78.65, 78.68 84.29, 66.18 98.98 M66.18 98.98 C54.97 114.39, 53.91 112.1, 39.75 98.98 M66.18 98.98 C52.26 113.05, 50.81 114.19, 39.75 98.98 M39.75 98.98 C34.04 92.53, 27.31 85.18, 13.25 70.99 M39.75 98.98 C30.32 90.32, 21.64 78.81, 13.25 70.99 M13.25 70.99 C0.73 58.37, 0.21 57.24, 13.25 42.75 M13.25 70.99 C1.6 59.27, 1.11 56.01, 13.25 42.75 M13.25 42.75 C19.41 35.5, 29.05 24.73, 39.75 14.25 M13.25 42.75 C21.68 33.53, 30.88 25.63, 39.75 14.25 M39.75 14.25 C54.59 -0.46, 51.21 -0.87, 66.18 14.25 M39.75 14.25 C51.79 -2.06, 54.67 1.2, 66.18 14.25" stroke="#000000" stroke-width="4" fill="none"></path></g></svg>