<svg version="1.1" xmlns="http://www.w3.org/2000/svg" viewBox="0 0 248.41268468786188 88.02123119212979" width="745.2380540635857" height="264.06369357638937">
  <!-- svg-source:excalidraw -->
  
  <defs>
    <style>
      @font-face {
        font-family: "Virgil";
        src: url("https://excalidraw.com/Virgil.woff2");
      }
      @font-face {
        font-family: "Cascadia";
        src: url("https://excalidraw.com/Cascadia.woff2");
      }
    </style>
  </defs>
  <g transform="translate(78.54775290514408 33.74483275803328) rotate(0 3.7443066749019636 19.137567449499073)"><text x="0" y="26.275134898998147" font-family="Virgil, Segoe UI Emoji" font-size="29.954453399215936px" fill="#000000" text-anchor="start" style="white-space: pre;" direction="ltr">i</text></g><g transform="translate(23.46844111043947 18.293068155476817) rotate(0 16.62170523184318 28.318460765362403)"><text x="0" y="39.6369215307248" font-family="Virgil, Segoe UI Emoji" font-size="44.32454728491504px" fill="#000000" text-anchor="start" style="white-space: pre;" direction="ltr">B</text></g><g stroke-linecap="round" transform="translate(10 14.978852544493066) rotate(0 28.25397350169999 27.142865039684125)"><path d="M13.57 0 M13.57 0 C24.31 0.35, 30.51 0.51, 42.94 0 M13.57 0 C22.54 0.55, 31.74 -0.57, 42.94 0 M42.94 0 C53.36 0.47, 56.58 5.38, 56.51 13.57 M42.94 0 C52.51 -1.06, 55.49 5.87, 56.51 13.57 M56.51 13.57 C57.42 22.6, 57.42 32.17, 56.51 40.71 M56.51 13.57 C57.28 19.86, 56.41 24.84, 56.51 40.71 M56.51 40.71 C57.14 51.53, 50.97 54.79, 42.94 54.29 M56.51 40.71 C55.46 48.82, 49.93 54.06, 42.94 54.29 M42.94 54.29 C37.73 52.72, 27.29 53.83, 13.57 54.29 M42.94 54.29 C34.83 53.82, 25.93 54.86, 13.57 54.29 M13.57 54.29 C4.68 52.64, 1.82 48.49, 0 40.71 M13.57 54.29 C5 52.25, 1.17 50.62, 0 40.71 M0 40.71 C-1.99 32.11, -0.97 20.66, 0 13.57 M0 40.71 C0.05 32.2, -0.2 23.93, 0 13.57 M0 13.57 C-1.28 5.26, 4.97 -1.69, 13.57 0 M0 13.57 C1.33 2.91, 3.07 -0.84, 13.57 0" stroke="#006400" stroke-width="2" fill="none"></path></g><g stroke-linecap="round" transform="translate(67.98936066804072 35.46033932416526) rotate(0 13.174619321470004 15.238099274811901)"><path d="M6.59 0 M6.59 0 C11.35 0.3, 15.67 0.87, 19.76 0 M6.59 0 C8.88 0.48, 12.29 -0.2, 19.76 0 M19.76 0 C23.67 1.65, 25.68 1.54, 26.35 6.59 M19.76 0 C22.56 -1.21, 25.93 1.79, 26.35 6.59 M26.35 6.59 C26.71 10.27, 26.9 15.54, 26.35 23.89 M26.35 6.59 C27.02 11.18, 26.53 16.81, 26.35 23.89 M26.35 23.89 C25.84 29.47, 25.3 31.25, 19.76 30.48 M26.35 23.89 C27.07 29.54, 24.76 31.49, 19.76 30.48 M19.76 30.48 C14.74 29.44, 11.43 31.6, 6.59 30.48 M19.76 30.48 C14.84 30.43, 10.98 30.44, 6.59 30.48 M6.59 30.48 C2.41 29.28, -1.74 27.53, 0 23.89 M6.59 30.48 C4.13 29.75, -0.78 26.5, 0 23.89 M0 23.89 C-0.2 18.83, 0.34 10.35, 0 6.59 M0 23.89 C0.09 17.7, -0.15 10.92, 0 6.59 M0 6.59 C-1.19 1.8, 3.63 1.35, 6.59 0 M0 6.59 C1.7 1.57, 4.49 1.02, 6.59 0" stroke="#006400" stroke-width="2" fill="none"></path></g><g stroke-linecap="round" transform="translate(96.26981947157128 34.79896406646117) rotate(0 13.174619321470004 15.238099274811901)"><path d="M6.59 0 M6.59 0 C9.48 1.34, 11.87 0.27, 19.76 0 M6.59 0 C9.56 0.27, 12.5 0.42, 19.76 0 M19.76 0 C24.05 -0.07, 27.38 3.47, 26.35 6.59 M19.76 0 C25.49 1.45, 25.48 2.05, 26.35 6.59 M26.35 6.59 C27.23 12.1, 27.86 14.23, 26.35 23.89 M26.35 6.59 C26.05 9.82, 26.51 14.22, 26.35 23.89 M26.35 23.89 C26.05 30.24, 22.91 32.33, 19.76 30.48 M26.35 23.89 C25.76 29.79, 26.06 28.36, 19.76 30.48 M19.76 30.48 C15.68 30.23, 14.21 29.05, 6.59 30.48 M19.76 30.48 C16.57 30.06, 13.53 30.72, 6.59 30.48 M6.59 30.48 C3.57 32.24, 1.69 29.88, 0 23.89 M6.59 30.48 C0.9 30.05, 0.69 29.93, 0 23.89 M0 23.89 C-1.25 18.34, -0.35 16.37, 0 6.59 M0 23.89 C0.89 18.31, 0.48 13.09, 0 6.59 M0 6.59 C0.06 1.58, 3.43 -0.29, 6.59 0 M0 6.59 C-1.51 4.35, 3.41 -1, 6.59 0" stroke="#006400" stroke-width="2" fill="none"></path></g><g transform="translate(102.92237694597429 34.88890600959462) rotate(0 8.122806682921237 17.148147441722728)"><text x="0" y="24.296294883445455" font-family="Virgil, Segoe UI Emoji" font-size="27.034914917156172px" fill="#000000" text-anchor="start" style="white-space: pre;" direction="ltr">t</text></g><g stroke-linecap="round" transform="translate(125.5555159957321 34.87304096623694) rotate(0 13.174619321470004 15.238099274811901)"><path d="M6.59 0 M6.59 0 C10.24 -1.11, 14.81 -0.63, 19.76 0 M6.59 0 C9.93 0.05, 13.07 0.62, 19.76 0 M19.76 0 C23.49 1.47, 26.08 0.57, 26.35 6.59 M19.76 0 C23.3 2, 27.18 3.98, 26.35 6.59 M26.35 6.59 C25.03 13.98, 26.84 17.49, 26.35 23.89 M26.35 6.59 C25.68 9.73, 25.69 12.72, 26.35 23.89 M26.35 23.89 C26.41 27.42, 24.38 29.67, 19.76 30.48 M26.35 23.89 C26.91 30.26, 25.19 28.52, 19.76 30.48 M19.76 30.48 C16.26 31.63, 12.13 31.46, 6.59 30.48 M19.76 30.48 C15.46 30.76, 10.02 30.45, 6.59 30.48 M6.59 30.48 C2.51 28.69, 0.92 29.15, 0 23.89 M6.59 30.48 C2.29 29.09, -1.1 28.53, 0 23.89 M0 23.89 C0.42 20.25, -1.28 15.38, 0 6.59 M0 23.89 C-0.41 19.21, -0.56 14.44, 0 6.59 M0 6.59 C-0.34 3.08, 2.64 0.61, 6.59 0 M0 6.59 C1.22 3.19, 4.36 -0.47, 6.59 0" stroke="#006400" stroke-width="2" fill="none"></path></g><g transform="translate(130.63372068795593 31.666702154433324) rotate(0 8.42327880859375 17.899467468261662)"><text x="0" y="24.798934936523352" font-family="Virgil, Segoe UI Emoji" font-size="28.465328239227016px" fill="#000000" text-anchor="start" style="white-space: pre;" direction="ltr">e</text></g><g transform="translate(161.64305760620732 10) rotate(0 21.256634747540488 34.010615596064895)"><text x="0" y="48.021231192129775" font-family="Virgil, Segoe UI Emoji" font-size="53.83946925631595px" fill="#000000" text-anchor="start" style="white-space: pre;" direction="ltr">M</text></g><g stroke-linecap="round" transform="translate(153.2539621988933 14.156737306045216) rotate(0 28.25397350169999 27.142865039684125)"><path d="M13.57 0 M13.57 0 C22.47 1.6, 31.63 -2.04, 42.94 0 M13.57 0 C22.39 0.89, 31.17 0.27, 42.94 0 M42.94 0 C51.69 -1.81, 56.43 3.75, 56.51 13.57 M42.94 0 C53.37 0.09, 55.48 5.44, 56.51 13.57 M56.51 13.57 C55.52 19.59, 55.25 25.35, 56.51 40.71 M56.51 13.57 C56.72 21.61, 56.89 29.99, 56.51 40.71 M56.51 40.71 C57.44 49.48, 53.24 54.7, 42.94 54.29 M56.51 40.71 C58.46 49.52, 52.2 54.7, 42.94 54.29 M42.94 54.29 C34.55 54.26, 26.12 54.14, 13.57 54.29 M42.94 54.29 C33.26 53.48, 22.28 55.08, 13.57 54.29 M13.57 54.29 C6.44 55.58, -0.12 50.31, 0 40.71 M13.57 54.29 C3.23 54.01, -0.96 48.56, 0 40.71 M0 40.71 C0.56 30.91, -1.19 22.79, 0 13.57 M0 40.71 C0.1 29.45, -0.15 18.71, 0 13.57 M0 13.57 C0.35 4.93, 5.21 -1.98, 13.57 0 M0 13.57 C-2.12 3.31, 6.01 2.07, 13.57 0" stroke="#006400" stroke-width="2" fill="none"></path></g><g stroke-linecap="round" transform="translate(212.06344604492188 34.33337164680148) rotate(0 13.174619321470004 15.238099274811901)"><path d="M6.59 0 M6.59 0 C10.05 -0.73, 14.25 0.53, 19.76 0 M6.59 0 C12.11 0.14, 17.16 0.35, 19.76 0 M19.76 0 C22.31 1.51, 26.03 2.69, 26.35 6.59 M19.76 0 C26.13 0.16, 28.39 2.93, 26.35 6.59 M26.35 6.59 C26.72 13.28, 24.58 18.24, 26.35 23.89 M26.35 6.59 C26.7 13.99, 27.03 19.93, 26.35 23.89 M26.35 23.89 C25.13 29.73, 23.62 30.4, 19.76 30.48 M26.35 23.89 C27.32 29.12, 25.01 28.62, 19.76 30.48 M19.76 30.48 C15.74 30.86, 11.62 30.01, 6.59 30.48 M19.76 30.48 C15.4 30.62, 12.13 30.87, 6.59 30.48 M6.59 30.48 C1.89 30.94, 0.05 27.68, 0 23.89 M6.59 30.48 C2.55 32.25, 1.95 30.17, 0 23.89 M0 23.89 C-1.45 17.67, -1.32 14.05, 0 6.59 M0 23.89 C-0.46 18.59, -0.38 12.28, 0 6.59 M0 6.59 C-1.55 2.64, 0.94 0.48, 6.59 0 M0 6.59 C0.99 1.14, 0.48 -0.91, 6.59 0" stroke="#006400" stroke-width="2" fill="none"></path></g><g transform="translate(217.14165073714548 31.12703283499792) rotate(0 8.42327880859375 17.89946746826169)"><text x="0" y="24.798934936523352" font-family="Virgil, Segoe UI Emoji" font-size="28.465328239227016px" fill="#000000" text-anchor="start" style="white-space: pre;" direction="ltr">e</text></g></svg>