<svg version="1.1" xmlns="http://www.w3.org/2000/svg" viewBox="0 0 248.20856568674571 88.02123119212979" width="744.6256970602371" height="264.06369357638937">
  <!-- svg-source:excalidraw -->
  
  <defs>
    <style>
      @font-face {
        font-family: "Virgil";
        src: url("https://excalidraw.com/Virgil.woff2");
      }
      @font-face {
        font-family: "Cascadia";
        src: url("https://excalidraw.com/Cascadia.woff2");
      }
    </style>
  </defs>
  <g stroke-linecap="round" transform="translate(153.04984319777714 13.952661901469355) rotate(0 28.25397350169999 27.142865039684125)"><path d="M13.79 -0.08 L48.01 -0.02 L53.08 1.71 L52.84 5.14 L54.9 13.46 L56.79 45.64 L55.53 49.5 L50.91 50.56 L42.86 53.51 L11.59 54.15 L4.41 53.17 L0.5 47.53 L1.47 39.93 L0.63 6.57 L4.61 1.59 L14.51 -1.18" stroke="none" stroke-width="0" fill="#ffffff"></path><path d="M13.57 0 M13.57 0 C24.61 0.85, 31.42 1.18, 42.94 0 M13.57 0 C23.08 0.21, 32.35 -0.5, 42.94 0 M42.94 0 C50.57 0.25, 56.69 4.98, 56.51 13.57 M42.94 0 C52.05 0.85, 57.16 3.22, 56.51 13.57 M56.51 13.57 C58.25 24.24, 57.63 30.97, 56.51 40.71 M56.51 13.57 C55.94 21.94, 56.38 31.18, 56.51 40.71 M56.51 40.71 C55.74 50.28, 50.38 53.05, 42.94 54.29 M56.51 40.71 C54.75 51.9, 53.37 55.46, 42.94 54.29 M42.94 54.29 C31.99 54.64, 24.18 54.97, 13.57 54.29 M42.94 54.29 C37.68 55.03, 31.86 54.08, 13.57 54.29 M13.57 54.29 C2.78 53.11, -0.97 49.74, 0 40.71 M13.57 54.29 C4.8 52.17, -1.21 51.04, 0 40.71 M0 40.71 C0.56 34.39, 1.25 27.77, 0 13.57 M0 40.71 C0.13 31.31, 0.7 23.34, 0 13.57 M0 13.57 C-1.83 5.86, 5.35 -1.84, 13.57 0 M0 13.57 C1.87 3.69, 3.23 -2.28, 13.57 0" stroke="#0f880fff" stroke-width="4" fill="none"></path></g><g stroke-linecap="round" transform="translate(67.78524166692455 35.46033932416526) rotate(0 13.174619321470004 15.238099274811901)"><path d="M7.36 -1.85 L22.96 0.87 L26.43 3.95 L27.7 22.05 L26.08 27.02 L21.28 31.58 L4.38 29.51 L-0.07 28.42 L-0.26 3.05 L0.26 0.59 L6.22 -0.35" stroke="none" stroke-width="0" fill="#ffffff"></path><path d="M6.59 0 M6.59 0 C10.65 -1.14, 14.65 -0.98, 19.76 0 M6.59 0 C10.81 -0.24, 14.07 0.42, 19.76 0 M19.76 0 C23.64 1.19, 27.49 2.97, 26.35 6.59 M19.76 0 C24.88 1.26, 26.95 3.21, 26.35 6.59 M26.35 6.59 C25.18 10.76, 26.39 19.16, 26.35 23.89 M26.35 6.59 C25.7 12.31, 26.42 18.1, 26.35 23.89 M26.35 23.89 C26.57 27.09, 22.41 29.73, 19.76 30.48 M26.35 23.89 C28.28 27.56, 23.37 28.7, 19.76 30.48 M19.76 30.48 C15.13 31.01, 11.04 29.07, 6.59 30.48 M19.76 30.48 C14.67 30.88, 9.29 30.91, 6.59 30.48 M6.59 30.48 C1.01 30.08, 1.43 29.63, 0 23.89 M6.59 30.48 C3.9 29.85, 2.3 29.3, 0 23.89 M0 23.89 C0.43 17.18, 0.27 12.37, 0 6.59 M0 23.89 C-0.51 18.62, -0.63 13.11, 0 6.59 M0 6.59 C-1.33 1.64, 0.33 0.91, 6.59 0 M0 6.59 C1.04 3.25, 0.06 -1.01, 6.59 0" stroke="#0f880fff" stroke-width="4" fill="none"></path></g><g stroke-linecap="round" transform="translate(10 14.978852544493066) rotate(0 28.25397350169999 28)"><path d="M14.21 1.52 L46.48 1.84 L51.49 0.67 L55.15 5.98 L57.72 12.78 L55.13 46.03 L52.67 49.03 L52.42 54.5 L42.58 56.86 L11.17 54.86 L4.58 55.2 L2.48 49.8 L0.56 43.01 L1.07 8.89 L6.4 0.22 L12.41 -0.44" stroke="none" stroke-width="0" fill="#ffffff"></path><path d="M14 0 M14 0 C24.81 0.6, 38.49 -1.05, 42.51 0 M14 0 C22.38 0.02, 31.91 0.24, 42.51 0 M42.51 0 C53.5 1.74, 54.7 2.92, 56.51 14 M42.51 0 C51.04 -0.03, 55.69 3.21, 56.51 14 M56.51 14 C57.95 24.42, 54.78 36.35, 56.51 42 M56.51 14 C57.07 20.99, 57.04 28.16, 56.51 42 M56.51 42 C57.88 49.6, 52.66 55.28, 42.51 56 M56.51 42 C55.13 51.6, 53.36 58.15, 42.51 56 M42.51 56 C33.54 54.72, 24.81 56.44, 14 56 M42.51 56 C35.73 55.43, 30.49 55.57, 14 56 M14 56 C5.65 55.58, 0.96 53.27, 0 42 M14 56 C6.47 54.85, -0.47 49.52, 0 42 M0 42 C2.14 32.44, -1.2 20.77, 0 14 M0 42 C1.01 33.62, -0.52 26.99, 0 14 M0 14 C-0.09 2.71, 2.81 -0.15, 14 0 M0 14 C-1.2 2.95, 3.49 0.58, 14 0" stroke="#0f880f" stroke-width="4" fill="none"></path></g><g transform="translate(78.34363390402791 33.74483275803328) rotate(0 3.7443066749019636 19.137567449499073)"><text x="0" y="26.275134898998147" font-family="Virgil, Segoe UI Emoji" font-size="29.954453399215936px" fill="#000000" text-anchor="start" style="white-space: pre;" direction="ltr">i</text></g><g transform="translate(23.264322109323302 18.293068155476817) rotate(0 16.62170523184318 28.318460765362403)"><text x="0" y="39.6369215307248" font-family="Virgil, Segoe UI Emoji" font-size="44.32454728491504px" fill="#000000" text-anchor="start" style="white-space: pre;" direction="ltr">B</text></g><g stroke-linecap="round" transform="translate(96.06570047045511 34.79896406646117) rotate(0 13.174619321470004 15.238099274811901)"><path d="M5.09 -1.61 L21.58 0.29 L27.86 2.72 L26.65 21.99 L24.18 27.87 L23.46 31.11 L5.23 31.55 L0.31 26.7 L1.44 4.98 L2.81 2.9 L5.83 -0.13" stroke="none" stroke-width="0" fill="#ffffff"></path><path d="M6.59 0 M6.59 0 C10.15 1.13, 13.58 -0.2, 19.76 0 M6.59 0 C9.3 -0.47, 12.57 -0.04, 19.76 0 M19.76 0 C23.86 1.96, 25.11 4.05, 26.35 6.59 M19.76 0 C23.56 1.51, 28.25 0.08, 26.35 6.59 M26.35 6.59 C24.87 10.31, 26.83 12.66, 26.35 23.89 M26.35 6.59 C26.5 10.29, 26.88 15.54, 26.35 23.89 M26.35 23.89 C27.72 30.04, 25.85 32.07, 19.76 30.48 M26.35 23.89 C25.05 27.86, 24.84 32.13, 19.76 30.48 M19.76 30.48 C15.52 29.61, 12.8 31.52, 6.59 30.48 M19.76 30.48 C16 30.54, 11.36 30.89, 6.59 30.48 M6.59 30.48 C2.25 29.86, 1.24 27.99, 0 23.89 M6.59 30.48 C0.69 32.63, 1.22 27.28, 0 23.89 M0 23.89 C-0.73 18.73, -0.08 14.93, 0 6.59 M0 23.89 C0.59 18.02, -0.69 12.06, 0 6.59 M0 6.59 C-1.42 3.87, 1.23 0.63, 6.59 0 M0 6.59 C1.25 1.47, 3.8 0.9, 6.59 0" stroke="#0f880fff" stroke-width="4" fill="none"></path></g><g stroke-linecap="round" transform="translate(125.35139699461592 34.87304096623694) rotate(0 13.174619321470004 15.238099274811901)"><path d="M7.33 -1.78 L24.64 -0.79 L24.45 2.7 L25.59 22.84 L24.99 27.19 L22.87 30.3 L3.57 32.04 L-0.25 28.24 L0.14 2.08 L0.91 3.39 L7.31 1.55" stroke="none" stroke-width="0" fill="#ffffff"></path><path d="M6.59 0 M6.59 0 C10.26 1.18, 16.21 -0.71, 19.76 0 M6.59 0 C8.67 -0.29, 11.32 -0.67, 19.76 0 M19.76 0 C24.21 -0.86, 26.58 1.39, 26.35 6.59 M19.76 0 C24.72 1.98, 27.39 0.24, 26.35 6.59 M26.35 6.59 C26.39 12.65, 25.59 17.04, 26.35 23.89 M26.35 6.59 C26.91 13.18, 25.99 19, 26.35 23.89 M26.35 23.89 C26.66 26.5, 25.07 31.35, 19.76 30.48 M26.35 23.89 C26.44 26.89, 23.05 30.73, 19.76 30.48 M19.76 30.48 C17.01 30.73, 12.62 30.12, 6.59 30.48 M19.76 30.48 C15.68 30.67, 11.93 30.68, 6.59 30.48 M6.59 30.48 C1.85 31.36, 0.45 28.89, 0 23.89 M6.59 30.48 C3.42 31.47, 2.17 27.81, 0 23.89 M0 23.89 C-1.44 19.64, -1.08 15.62, 0 6.59 M0 23.89 C0.31 18.74, 0.42 14.61, 0 6.59 M0 6.59 C1.76 1.46, 4.19 0.09, 6.59 0 M0 6.59 C1.68 3.19, 1.74 0.36, 6.59 0" stroke="#0f880fff" stroke-width="4" fill="none"></path></g><g transform="translate(161.43893860509115 10) rotate(0 21.256634747540488 34.010615596064895)"><text x="0" y="48.021231192129775" font-family="Virgil, Segoe UI Emoji" font-size="53.83946925631595px" fill="#000000" text-anchor="start" style="white-space: pre;" direction="ltr">M</text></g><g transform="translate(130.42960168683976 31.666702154433324) rotate(0 8.42327880859375 17.899467468261662)"><text x="0" y="24.798934936523352" font-family="Virgil, Segoe UI Emoji" font-size="28.465328239227016px" fill="#000000" text-anchor="start" style="white-space: pre;" direction="ltr">e</text></g><g stroke-linecap="round" transform="translate(211.8593270438057 34.33337164680148) rotate(0 13.174619321470004 15.238099274811901)"><path d="M6.08 -0.87 L21.67 0.18 L24.74 4.37 L27.05 25.7 L26.39 25.15 L23.79 30.17 L4.57 30.81 L-1.43 28.28 L0.09 4.2 L3.37 1.78 L8.36 0.64" stroke="none" stroke-width="0" fill="#ffffff"></path><path d="M6.59 0 M6.59 0 C10.91 1.14, 13.28 0.92, 19.76 0 M6.59 0 C11.8 0.63, 17.07 0.13, 19.76 0 M19.76 0 C22.93 1.45, 25.81 2.12, 26.35 6.59 M19.76 0 C25.12 0.84, 27.21 0.34, 26.35 6.59 M26.35 6.59 C26.95 13.03, 27.54 17.94, 26.35 23.89 M26.35 6.59 C25.38 11.77, 26.02 17.02, 26.35 23.89 M26.35 23.89 C26.05 28.74, 24.2 29.88, 19.76 30.48 M26.35 23.89 C26.7 30.05, 26.1 32.37, 19.76 30.48 M19.76 30.48 C14.4 30.08, 10.17 31.66, 6.59 30.48 M19.76 30.48 C15.11 30.69, 10.89 30.18, 6.59 30.48 M6.59 30.48 C0.65 30.92, -1.26 28.76, 0 23.89 M6.59 30.48 C3.19 29.42, -1.72 27.37, 0 23.89 M0 23.89 C-1.28 18.75, -1.16 10.88, 0 6.59 M0 23.89 C-0.54 19.69, 0.27 15.77, 0 6.59 M0 6.59 C-1.24 1.8, 3.77 -0.54, 6.59 0 M0 6.59 C0.64 3.4, 3.26 1.7, 6.59 0" stroke="#0f880fff" stroke-width="4" fill="none"></path></g><g transform="translate(216.9375317360293 31.12703283499792) rotate(0 8.42327880859375 17.89946746826169)"><text x="0" y="24.798934936523352" font-family="Virgil, Segoe UI Emoji" font-size="28.465328239227016px" fill="#000000" text-anchor="start" style="white-space: pre;" direction="ltr">e</text></g><g transform="translate(102.71825794485812 34.88890600959462) rotate(0 8.122806682921237 17.148147441722728)"><text x="0" y="24.296294883445455" font-family="Virgil, Segoe UI Emoji" font-size="27.034914917156172px" fill="#000000" text-anchor="start" style="white-space: pre;" direction="ltr">t</text></g></svg>